<?xml version="1.0" encoding="UTF-8"?>
<svg width="144px" height="35px" viewBox="0 0 144 35" version="1.1" xmlns="http://www.w3.org/2000/svg" xmlns:xlink="http://www.w3.org/1999/xlink">
    <title>Shape</title>
    <g id="Page-1" stroke="none" stroke-width="1" fill="none" fill-rule="evenodd">
        <g id="Medium" transform="translate(-239.000000, -40.000000)" fill="#FFFFFF" fill-rule="nonzero">
            <path d="M364.455621,66.9316239 C363.47929,65.5641026 363,63.5641026 363,60.9487179 C363,58.3675214 363.497041,56.3846154 364.491124,55.034188 C365.485207,53.6837607 366.976331,53 369,53 C371.005917,53 372.514793,53.6837607 373.508876,55.034188 C374.502959,56.3846154 375,58.3675214 375,60.9487179 C375,63.5299145 374.502959,65.5299145 373.508876,66.9145299 C372.514793,68.2991453 371.023669,69 369,69 C366.940828,68.982906 365.414201,68.2991453 364.455621,66.9316239 M375.375418,74.0890392 C376.990648,73.4707342 378.362725,72.5776268 379.49165,71.4097172 C380.620574,70.2418077 381.488978,68.8162709 382.09686,67.1502823 C382.704743,65.4842936 383,63.5778529 383,61.4653106 C383,59.3871185 382.704743,57.5150281 382.114228,55.8318643 C381.523714,54.1658756 380.655311,52.7403389 379.526386,51.5896045 C378.397462,50.43887 377.025384,49.5457627 375.410154,48.9274576 C373.794923,48.3091525 371.988644,48 369.991316,48 C368.028724,48 366.222445,48.3091525 364.624582,48.9274576 C363.009352,49.5457627 361.637275,50.43887 360.50835,51.5896045 C359.379426,52.7403389 358.511022,54.1487005 357.90314,55.8318643 C357.295257,57.497853 357,59.3871185 357,61.4653106 C357,65.8106213 358.128925,69.1597738 360.404142,71.4955929 C362.679359,73.8314121 365.875084,74.9993217 370.008684,74.9993217 C371.971276,75.0164969 373.777555,74.7073443 375.375418,74.0890392 M317.068933,74 L323.910573,74 L323.910573,58.819135 C323.910573,58.0865007 324.04844,57.3879423 324.324173,56.757536 C324.599907,56.1271298 324.961807,55.5819135 325.427108,55.1389253 C325.978575,54.593709 326.547275,54.2018349 327.115976,53.9803408 C327.684676,53.7588467 328.32231,53.6395806 328.994411,53.6395806 C329.425245,53.6395806 329.821612,53.7077326 330.217979,53.8269987 C330.614346,53.9633028 330.941779,54.1847969 331.217513,54.508519 C331.493246,54.8322412 331.71728,55.2752294 331.87238,55.8374836 C332.02748,56.3997379 332.113647,57.1323722 332.113647,58.0353866 L332.113647,74 L338.955286,74 L338.955286,58.5294889 C338.955286,57.8820446 339.093153,57.2686763 339.368887,56.689384 C339.64462,56.1100917 340.006521,55.5989515 340.471821,55.1389253 C341.023288,54.593709 341.591989,54.2018349 342.160689,53.9803408 C342.72939,53.7588467 343.367024,53.6395806 344.039124,53.6395806 C344.469958,53.6395806 344.866325,53.7077326 345.262692,53.8269987 C345.659059,53.9633028 345.986493,54.1847969 346.262226,54.508519 C346.53796,54.8322412 346.761993,55.2752294 346.917094,55.8374836 C347.072194,56.3997379 347.158361,57.1323722 347.158361,58.0353866 L347.158361,74 L354,74 L354,57.1323722 C354,53.9121887 353.345133,51.5779817 352.018165,50.146789 C350.691197,48.7155963 348.709362,48 346.07266,48 C344.504425,48 343.074057,48.3407602 341.764322,49.0222805 C340.454588,49.7038008 339.213787,50.8112713 338.041919,52.36173 C337.559385,50.9475754 336.714951,49.8571429 335.543083,49.1245085 C334.371216,48.3918742 332.854681,48.017038 330.993479,48.017038 C329.597578,48.017038 328.253377,48.3577982 326.978109,49.0393185 C325.702841,49.7208388 324.599907,50.7601573 323.652073,52.1743119 L323.652073,48.7667104 L317,48.7667104 L317,74 L317.068933,74 Z M307,64.358209 C307,65.420398 306.80531,66.2910448 306.39823,67.0049751 C305.99115,67.7189055 305.477876,68.2935323 304.840708,68.7636816 C303.707965,69.5820896 302.221239,70 300.415929,70 C299.336283,70 298.504425,69.7562189 297.902655,69.2512438 C297.300885,68.7636816 297,68.0845771 297,67.2313433 C297,66.6741294 297.088496,66.1691542 297.247788,65.699005 C297.40708,65.2462687 297.743363,64.8283582 298.221239,64.4800995 C298.699115,64.1318408 299.40708,63.8532338 300.309735,63.6094527 C301.212389,63.3830846 302.39823,63.2263682 303.867257,63.1567164 L306.982301,63 L306.982301,64.358209 L307,64.358209 Z M306.587361,74.3439898 L313,74.3439898 L313,58.185422 C313,56.6144501 312.811896,55.1988491 312.435688,53.9558824 C312.05948,52.6956522 311.460967,51.6253197 310.640149,50.7448849 C309.819331,49.8644501 308.724907,49.1911765 307.356877,48.7078005 C306.005948,48.241688 304.347212,48 302.41487,48 C299.251301,48 296.720446,48.6042199 294.839405,49.7953964 C292.958364,50.9865729 291.795539,52.9200767 291.350929,55.5959079 L297.558364,56.1828645 C297.951673,54.1285166 299.490706,53.092711 302.175465,53.092711 C303.33829,53.092711 304.347212,53.3861893 305.20223,53.9731458 C306.057249,54.5601023 306.484758,55.6304348 306.484758,57.2014066 L306.484758,58.4789003 L303.235688,58.6342711 C301.611152,58.7033248 300.020818,58.8586957 298.464684,59.1176471 C296.89145,59.3765985 295.489219,59.8254476 294.223792,60.4469309 C292.958364,61.0684143 291.949442,61.9315857 291.162825,63.036445 C290.393309,64.1413043 290,65.5914322 290,67.3523018 C290,68.6988491 290.222305,69.8382353 290.684015,70.8049872 C291.128625,71.7717391 291.744238,72.5658568 292.496654,73.1873402 C293.249071,73.8088235 294.13829,74.2576726 295.164312,74.5511509 C296.190335,74.8446292 297.250558,75 298.396283,75 C300.362825,75 301.97026,74.637468 303.218587,73.9296675 C304.466914,73.2046036 305.595539,72.2896419 306.587361,71.1329923 L306.587361,74.3439898 L306.587361,74.3439898 Z M271,59 C271.034429,58.1666667 271.172144,57.3888889 271.447574,56.6666667 C271.70579,55.9444444 272.067293,55.3148148 272.549296,54.7777778 C273.014085,54.2407407 273.599374,53.8148148 274.28795,53.4814815 C274.976526,53.1666667 275.768388,53 276.680751,53 C278.505477,53 279.8482,53.5185185 280.70892,54.5740741 C281.56964,55.6296296 282,57.0925926 282,58.9814815 L271,58.9814815 L271,59 Z M281.212632,66.2864418 C280.741053,68.5550605 279.174737,69.7065563 276.530526,69.7065563 C274.627368,69.7065563 273.178947,69.1222151 272.235789,67.9707193 C271.275789,66.8192234 270.770526,65.2208784 270.703158,63.1756843 L288,63.1756843 L288,60.4430299 C288,56.6448122 287.04,53.6199873 285.103158,51.3685551 C283.183158,49.1171229 280.303158,48 276.48,48 C274.627368,48 272.943158,48.3093571 271.410526,48.8936983 C269.877895,49.495226 268.564211,50.3889243 267.469474,51.5576066 C266.374737,52.726289 265.515789,54.1527689 264.909474,55.81986 C264.303158,57.486951 264,59.4118396 264,61.5429663 C264,65.8395926 265.044211,69.1565882 267.132632,71.4939529 C269.221053,73.8313176 272.336842,75 276.48,75 C279.915789,75 282.543158,74.2609803 284.345263,72.7829408 C286.147368,71.3049013 287.258947,69.1394017 287.713684,66.2692553 L281.212632,66.2692553 L281.212632,66.2864418 Z M239,75 L262.217958,75 L263,68.7290227 L246.351195,68.7290227 L246.351195,40 L239,40 L239,75 Z" id="Shape"></path>
        </g>
    </g>
</svg>