<?xml version="1.0" encoding="UTF-8"?>
<svg width="38px" height="38px" viewBox="0 0 38 38" version="1.1" xmlns="http://www.w3.org/2000/svg" xmlns:xlink="http://www.w3.org/1999/xlink">
    <title>linkedin</title>
    <g id="Page-1" stroke="none" stroke-width="1" fill="none" fill-rule="evenodd">
        <g id="Medium" transform="translate(-876.000000, -3617.000000)" fill="#FFFFFF" fill-rule="nonzero">
            <g id="footer" transform="translate(566.000000, 3580.000000)">
                <g id="linkedin" transform="translate(310.000000, 37.000000)">
                    <path d="M35.2857144,0 L2.70580426,0 C1.21294665,0 0,1.22991071 0,2.73973111 L0,35.2602689 C0,36.7700893 1.21294665,38 2.70580426,38 L35.2857144,38 C36.778572,38 38,36.7700893 38,35.2602689 L38,2.73973111 C38,1.22991071 36.778572,0 35.2857144,0 Z M11.4848218,32.5714286 L5.85267967,32.5714286 L5.85267967,14.4366069 L11.4933045,14.4366069 L11.4933045,32.5714286 L11.4848218,32.5714286 Z M8.66875074,11.9598214 C6.86205411,11.9598214 5.40312585,10.4924117 5.40312585,8.69419643 C5.40312585,6.89598111 6.86205541,5.42857143 8.66875203,5.42857143 C10.466966,5.42857143 11.9343769,6.89598111 11.9343769,8.69419643 C11.9343769,10.5008918 10.4754487,11.9598214 8.66875203,11.9598214 L8.66875074,11.9598214 Z M32.5968741,32.5714286 L26.964732,32.5714286 L26.964732,23.75 C26.964732,21.6464296 26.9223213,18.9406253 24.0383928,18.9406253 C21.103571,18.9406253 20.6540184,21.2308025 20.6540184,23.5973225 L20.6540184,32.5714286 L15.0218763,32.5714286 L15.0218763,14.4366069 L20.4250009,14.4366069 L20.4250009,16.9133923 L20.5013396,16.9133923 C21.2562498,15.4883921 23.0968745,13.9870531 25.8366081,13.9870531 C31.5366063,13.9870531 32.5968741,17.7446426 32.5968741,22.6303561 L32.5968741,32.5714286 Z" id="Shape"></path>
                </g>
            </g>
        </g>
    </g>
</svg>