<?xml version="1.0" encoding="UTF-8"?>
<svg width="36px" height="36px" viewBox="0 0 36 36" version="1.1" xmlns="http://www.w3.org/2000/svg" xmlns:xlink="http://www.w3.org/1999/xlink">
    <title>Instagram 2</title>
    <g id="Page-1" stroke="none" stroke-width="1" fill="none" fill-rule="evenodd">
        <g id="Medium" transform="translate(-936.000000, -3617.000000)" fill="#FFFFFF" fill-rule="nonzero">
            <g id="footer" transform="translate(566.000000, 3580.000000)">
                <g id="Instagram" transform="translate(370.000000, 37.000000)">
                    <path d="M18.0040171,8.77005535 C12.8961529,8.77005535 8.77613044,12.8909972 8.77613044,18 C8.77613044,23.1090041 12.8961529,27.2299447 18.0040171,27.2299447 C23.1118813,27.2299447 27.2319025,23.1090041 27.2319025,18 C27.2319025,12.8909959 23.1118813,8.77005535 18.0040171,8.77005535 Z M18.0040171,24.0006703 C14.7031801,24.0006703 12.0046868,21.3096071 12.0046868,18.0000012 C12.0046868,14.6903954 14.6951496,11.9993322 18.0040171,11.9993322 C21.3128833,11.9993322 24.0033461,14.6903954 24.0033461,18.0000012 C24.0033461,21.3096071 21.3048516,24.0006703 18.0040159,24.0006703 L18.0040171,24.0006703 Z M29.7617407,8.39250222 C29.7617407,7.20361557 28.7979928,6.23965263 27.6093714,6.23965263 C26.42075,6.23965263 25.4570021,7.20361557 25.4570021,8.39250222 C25.4570021,9.58139131 26.4127183,10.5453543 27.6093714,10.5453543 C28.7979928,10.5453543 29.7617407,9.58942483 29.7617407,8.39250222 Z M35.8735089,10.5774859 C35.736977,7.69363056 35.0784174,5.1391273 32.9662019,3.03447635 C30.862018,0.929822953 28.3080871,0.271116415 25.4248752,0.126520503 C22.4533193,-0.0421735012 13.5466832,-0.0421735012 10.5751272,0.126520503 C7.6999458,0.2630829 5.14601369,0.921789438 3.03379935,3.02644284 C0.921585009,5.13109623 0.271054703,7.68559704 0.126492276,10.5694523 C-0.0421640921,13.5416714 -0.0421640921,22.4502951 0.126492276,25.4225141 C0.26302298,28.3063694 0.921583784,30.8608727 3.03379812,32.9655236 C5.14601246,35.0701746 7.69191286,35.7288836 10.575126,35.8734795 C13.5466819,36.0421735 22.4533181,36.0421735 25.424874,35.8734795 C28.3080859,35.7369171 30.8620193,35.0782106 32.9662007,32.9655236 C35.0703845,30.8608703 35.7289441,28.3063694 35.8735077,25.4225141 C36.0421641,22.4502951 36.0421641,13.5497037 35.8735077,10.5774859 L35.8735089,10.5774859 Z M32.0345772,28.6116258 C31.4081421,30.1860991 30.1954255,31.3990863 28.6132718,32.0336948 C26.2440582,32.9735596 20.6221956,32.756667 18.0040134,32.756667 C15.3858312,32.756667 9.75593809,32.9655261 7.39475505,32.0336948 C5.82063303,31.4071198 4.60791647,30.1941327 3.97344961,28.6116258 C3.03379567,26.2418836 3.2506387,20.6187665 3.2506387,18 C3.2506387,15.3812335 3.04182617,9.75008532 3.97344961,7.38837415 C4.59988597,5.81390086 5.81260254,4.60091368 7.39475505,3.96630523 C9.76396858,3.02644284 15.3858312,3.24333303 18.0040134,3.24333303 C20.6221956,3.24333303 26.25209,3.0344739 28.6132718,3.96630523 C30.1873938,4.59288261 31.4001104,5.80586735 32.0345772,7.38837415 C32.9742324,9.75811638 32.7573881,15.3812335 32.7573881,18 C32.7573881,20.6187665 32.9742324,26.2499147 32.0345772,28.6116258 Z" id="Shape"></path>
                </g>
            </g>
        </g>
    </g>
</svg>