<?xml version="1.0" encoding="UTF-8"?>
<svg width="40px" height="40px" viewBox="0 0 40 40" version="1.1" xmlns="http://www.w3.org/2000/svg" xmlns:xlink="http://www.w3.org/1999/xlink">
    <title>facebook 2</title>
    <g id="Page-1" stroke="none" stroke-width="1" fill="none" fill-rule="evenodd">
        <g id="Medium" transform="translate(-813.000000, -3614.000000)" fill="#FFFFFF" fill-rule="nonzero">
            <g id="footer" transform="translate(566.000000, 3580.000000)">
                <g id="facebook" transform="translate(247.000000, 34.000000)">
                    <path d="M40,20.1217039 C40,9.00608519 31.0483871,0 20,0 C8.9516129,0 0,9.00608519 0,20.1217039 C0,30.1647058 7.31370987,38.4892499 16.875,40 L16.875,25.9383369 L11.7943548,25.9383369 L11.7943548,20.1217039 L16.875,20.1217039 L16.875,15.6884382 C16.875,10.6458411 19.858871,7.86044664 24.4290309,7.86044664 C26.6177417,7.86044664 28.9064493,8.25314412 28.9064493,8.25314412 L28.9064493,13.2024342 L26.3838688,13.2024342 C23.8999988,13.2024342 23.1249975,14.7537522 23.1249975,16.3448273 L23.1249975,20.1217039 L28.6717716,20.1217039 L27.7846749,25.9383369 L23.1249975,25.9383369 L23.1249975,40 C32.6862901,38.4892499 40,30.1647058 40,20.1217039 Z" id="Path"></path>
                </g>
            </g>
        </g>
    </g>
</svg>