<?xml version="1.0" encoding="UTF-8"?>
<svg width="145px" height="37px" viewBox="0 0 145 37" version="1.1" xmlns="http://www.w3.org/2000/svg" xmlns:xlink="http://www.w3.org/1999/xlink">
    <title>logo-alterfood-color</title>
    <g id="Page-1" stroke="none" stroke-width="1" fill="none" fill-rule="evenodd">
        <g id="Medium" transform="translate(-565.000000, -3735.000000)" fill="#FFFFFF" fill-rule="nonzero">
            <g id="logo-alterfood-color" transform="translate(565.546125, 3735.799083)">
                <g id="Group">
                    <path d="M11.4275229,17.0422018 L5.48256881,17.0422018 L4.22752294,21.3357798 L0,21.3357798 L6.73761468,0.198165138 L10.106422,0.198165138 L16.8440367,21.3357798 L12.6165138,21.3357798 L11.4275229,17.0422018 Z M10.5027523,13.6733945 L8.52110092,6.53944954 L6.53944954,13.6733945 L10.5027523,13.6733945 Z" id="Shape"></path>
                    <path d="M33.9522936,18.9577982 C32.9614679,20.3449541 31.1119266,21.6 28.6678899,21.6 C24.3743119,21.6 22.1284404,19.0238532 22.1284404,14.0036697 L22.1284404,3.83119266 L15.3908257,3.83119266 L15.3908257,0.264220183 L26.0256881,0.264220183 L26.0256881,14.4 C26.0256881,16.9100917 27.0165138,18.0330275 28.6018349,18.0330275 C29.6587156,18.0330275 30.3192661,17.5706422 30.8477064,16.8440367 L33.9522936,18.9577982 Z" id="Path"></path>
                    <path d="M39.9633028,10.5688073 L39.9633028,15.5229358 C39.9633028,18.2311927 43.0018349,18.4954128 44.7853211,17.5706422 L46.2385321,20.5431193 C45.2477064,21.2036697 44.1247706,21.6 42.0110092,21.6 C38.2458716,21.6 36.1321101,18.8256881 36.1321101,15.3247706 L36.1321101,10.5688073 L32.3009174,10.5688073 L32.3009174,6.93577982 L36.1321101,6.93577982 L36.1321101,1.91559633 L39.9633028,0.726605505 L39.9633028,7.00183486 L46.2385321,7.00183486 L46.2385321,10.5688073 L39.9633028,10.5688073 Z" id="Path"></path>
                    <path d="M62.4880734,15.5889908 L52.7119266,15.5889908 C53.1082569,16.9761468 54.2311927,17.9669725 56.0807339,17.9669725 C57.4018349,17.9669725 58.5247706,17.306422 59.1853211,16.6458716 L61.6954128,18.9577982 C60.5724771,20.5431193 58.2605505,21.6 56.0807339,21.6 C51.5889908,21.6 48.7486239,18.2972477 48.7486239,14.1357798 C48.7486239,9.97431193 51.3908257,6.67155963 55.9486239,6.67155963 C58.5908257,6.67155963 62.6862385,8.25688073 62.6862385,13.8715596 C62.6201835,14.466055 62.5541284,14.9944954 62.4880734,15.5889908 Z M52.6458716,12.7486239 L58.7889908,12.7486239 C58.6568807,11.559633 57.666055,10.3706422 55.8165138,10.3706422 C54.0330275,10.3045872 53.0422018,11.2954128 52.6458716,12.7486239 Z" id="Shape"></path>
                    <path d="M78.7376147,9.6440367 L75.2366972,11.8238532 C74.7082569,10.8330275 74.0477064,10.4366972 73.1229358,10.4366972 C71.4055046,10.4366972 70.0844037,12.7486239 70.0844037,15.4568807 L70.0844037,21.3357798 L66.253211,21.3357798 L66.253211,7.00183486 L70.0844037,7.00183486 L70.0844037,9.57798165 C70.8110092,7.9266055 72.4623853,6.73761468 74.3119266,6.73761468 C76.293578,6.73761468 77.746789,7.79449541 78.7376147,9.6440367 Z" id="Path"></path>
                    <path d="M84.6825688,7.00183486 L84.6825688,6.27522936 C84.6825688,2.77431193 86.7963303,0 90.5614679,0 C92.6752294,0 93.7981651,0.396330275 94.7889908,1.05688073 L93.3357798,4.0293578 C91.6183486,3.10458716 88.5137615,3.36880734 88.5137615,6.07706422 L88.5137615,6.93577982 L94.7889908,6.93577982 L94.7889908,10.5688073 L88.5137615,10.5688073 L88.5137615,21.4018349 L84.6825688,21.4018349 L84.6825688,10.5688073 L81.3137615,10.5688073 L81.3137615,6.93577982 L84.6825688,6.93577982 L84.6825688,7.00183486 Z" id="Path"></path>
                    <path d="M111.038532,14.2018349 C111.038532,18.2972477 107.86789,21.666055 103.838532,21.666055 C99.5449541,21.666055 96.6385321,18.3633028 96.6385321,14.2018349 C96.6385321,10.040367 99.412844,6.73761468 103.838532,6.73761468 C107.86789,6.73761468 111.038532,10.040367 111.038532,14.2018349 Z M107.207339,14.2018349 C107.207339,12.0880734 105.754128,10.3706422 103.838532,10.3706422 C101.922936,10.3706422 100.469725,12.0880734 100.469725,14.2018349 C100.469725,16.3155963 101.922936,18.0330275 103.838532,18.0330275 C105.754128,18.0330275 107.207339,16.3155963 107.207339,14.2018349 Z" id="Shape"></path>
                    <path d="M127.552294,14.2018349 C127.552294,18.2972477 124.381651,21.666055 120.352294,21.666055 C116.058716,21.666055 113.152294,18.3633028 113.152294,14.2018349 C113.152294,10.040367 115.926606,6.73761468 120.352294,6.73761468 C124.447706,6.73761468 127.552294,10.040367 127.552294,14.2018349 Z M123.721101,14.2018349 C123.721101,12.0880734 122.26789,10.3706422 120.352294,10.3706422 C118.436697,10.3706422 116.983486,12.0880734 116.983486,14.2018349 C116.983486,16.3155963 118.436697,18.0330275 120.352294,18.0330275 C122.26789,18.0330275 123.721101,16.3155963 123.721101,14.2018349 Z" id="Shape"></path>
                    <path d="M144,0.264220183 L144,21.4018349 L140.168807,21.4018349 L140.168807,19.7504587 C139.376147,20.8733945 137.922936,21.666055 136.205505,21.666055 C132.440367,21.666055 129.6,18.4954128 129.6,14.2018349 C129.6,9.90825688 132.440367,6.73761468 136.205505,6.73761468 C137.922936,6.73761468 139.376147,7.53027523 140.168807,8.58715596 L140.168807,0.264220183 L144,0.264220183 Z M140.168807,14.2018349 C140.168807,12.0880734 138.649541,10.3706422 136.8,10.3706422 C134.950459,10.3706422 133.431193,12.0880734 133.431193,14.2018349 C133.431193,16.3155963 134.950459,18.0330275 136.8,18.0330275 C138.649541,18.0330275 140.168807,16.3155963 140.168807,14.2018349 Z" id="Shape"></path>
                    <path d="M15.5889908,8.19082569 C15.5889908,6.86972477 16.6458716,5.81284404 17.9669725,5.81284404 C19.2880734,5.81284404 20.3449541,6.86972477 20.3449541,8.19082569 C20.3449541,9.51192661 19.3541284,10.5688073 17.9669725,10.5688073 C16.6458716,10.5688073 15.5889908,9.57798165 15.5889908,8.19082569 Z" id="Path"></path>
                </g>
                <g id="Group" transform="translate(5.482569, 25.893578)">
                    <path d="M5.21834862,6.4733945 C4.88807339,6.93577982 4.29357798,7.33211009 3.43486239,7.33211009 C1.98165138,7.33211009 1.25504587,6.4733945 1.25504587,4.82201835 L1.25504587,1.38715596 L0,1.38715596 L0,0.198165138 L2.57614679,0.198165138 L2.57614679,4.88807339 C2.57614679,5.74678899 2.90642202,6.14311927 3.43486239,6.14311927 C3.76513761,6.14311927 4.0293578,6.01100917 4.16146789,5.74678899 L5.21834862,6.4733945 Z" id="Path"></path>
                    <polygon id="Path" points="7.99266055 0.198165138 9.24770642 0.198165138 8.7853211 2.4440367 7.99266055 2.4440367"></polygon>
                    <path d="M15.9192661,7.26605505 L15.853211,6.67155963 C15.5229358,7.06788991 14.7963303,7.33211009 14.2018349,7.33211009 C13.0788991,7.33211009 12.4844037,6.60550459 12.4844037,5.74678899 C12.4844037,4.49174312 14.0697248,3.83119266 15.6550459,4.35963303 C15.5889908,3.76513761 15.3247706,3.50091743 14.5981651,3.50091743 C14.1357798,3.50091743 13.7394495,3.63302752 13.4752294,3.76513761 L13.012844,2.84036697 C13.4091743,2.57614679 13.9376147,2.31192661 14.7963303,2.31192661 C15.9853211,2.31192661 16.9761468,2.97247706 16.9761468,4.7559633 L16.9761468,7.2 L15.9192661,7.26605505 L15.9192661,7.26605505 Z M13.7394495,5.74678899 C13.7394495,6.14311927 14.0697248,6.3412844 14.5321101,6.3412844 C14.9944954,6.3412844 15.5229358,5.94495413 15.6550459,5.28440367 C14.6642202,4.88807339 13.7394495,5.15229358 13.7394495,5.74678899 Z" id="Shape"></path>
                    <path d="M23.5155963,6.4733945 C23.1853211,6.93577982 22.5908257,7.33211009 21.7321101,7.33211009 C20.2788991,7.33211009 19.5522936,6.4733945 19.5522936,4.82201835 L19.5522936,1.38715596 L18.2972477,1.38715596 L18.2972477,0.198165138 L20.8733945,0.198165138 L20.8733945,4.88807339 C20.8733945,5.74678899 21.2036697,6.14311927 21.7321101,6.14311927 C22.0623853,6.14311927 22.3266055,6.01100917 22.4587156,5.74678899 L23.5155963,6.4733945 Z" id="Path"></path>
                    <path d="M29.1963303,6.07706422 L29.1963303,7.26605505 L25.0348624,7.26605505 L25.0348624,6.07706422 L26.4880734,6.07706422 L26.4880734,3.69908257 L25.2330275,3.69908257 L25.2330275,2.51009174 L27.8091743,2.51009174 L27.8091743,6.14311927 L29.1963303,6.07706422 L29.1963303,6.07706422 Z M26.3559633,0.79266055 C26.3559633,0.330275229 26.6862385,0 27.1486239,0 C27.6110092,0 27.9412844,0.330275229 27.9412844,0.79266055 C27.9412844,1.25504587 27.6110092,1.5853211 27.1486239,1.5853211 C26.6862385,1.5853211 26.3559633,1.25504587 26.3559633,0.79266055 Z" id="Shape"></path>
                    <path d="M35.8018349,4.42568807 L35.8018349,7.26605505 L34.546789,7.26605505 L34.546789,4.42568807 C34.546789,3.63302752 34.3486239,3.56697248 34.1504587,3.56697248 C33.9522936,3.56697248 33.7541284,3.69908257 33.7541284,4.62385321 L33.7541284,7.26605505 L32.4990826,7.26605505 L32.4990826,4.42568807 C32.4990826,3.63302752 32.3669725,3.56697248 32.1688073,3.56697248 C31.9706422,3.56697248 31.706422,3.69908257 31.706422,4.62385321 L31.706422,7.26605505 L30.4513761,7.26605505 L30.4513761,2.4440367 L31.706422,2.4440367 L31.706422,2.97247706 C31.9045872,2.57614679 32.1688073,2.37798165 32.5651376,2.37798165 C33.0275229,2.37798165 33.3577982,2.70825688 33.4899083,3.03853211 C33.6880734,2.64220183 34.0183486,2.37798165 34.546789,2.37798165 C35.3394495,2.37798165 35.8018349,2.90642202 35.8018349,4.42568807 Z" id="Path"></path>
                    <path d="M41.4825688,5.35045872 L38.1798165,5.35045872 C38.3119266,5.81284404 38.7082569,6.14311927 39.3027523,6.14311927 C39.7651376,6.14311927 40.0954128,5.94495413 40.359633,5.68073394 L41.2183486,6.4733945 C40.8220183,7.00183486 40.0954128,7.33211009 39.3688073,7.33211009 C37.8495413,7.33211009 36.9247706,6.20917431 36.9247706,4.82201835 C36.9247706,3.43486239 37.7834862,2.31192661 39.3027523,2.31192661 C40.1614679,2.31192661 41.5486239,2.84036697 41.5486239,4.68990826 C41.5486239,4.95412844 41.4825688,5.15229358 41.4825688,5.35045872 Z M38.1798165,4.35963303 L40.2275229,4.35963303 C40.1614679,3.96330275 39.8311927,3.56697248 39.2366972,3.56697248 C38.6422018,3.56697248 38.3119266,3.89724771 38.1798165,4.35963303 Z" id="Shape"></path>
                    <path d="M47.493578,4.49174312 L47.493578,7.2 L46.2385321,7.2 L46.2385321,4.49174312 C46.2385321,3.69908257 45.7761468,3.50091743 45.3798165,3.50091743 C44.9834862,3.50091743 44.5211009,3.83119266 44.5211009,4.62385321 L44.5211009,7.2 L43.133945,7.2 L43.133945,2.37798165 L44.3889908,2.37798165 L44.3889908,2.90642202 C44.587156,2.64220183 44.9834862,2.31192661 45.5779817,2.31192661 C46.6348624,2.37798165 47.493578,3.03853211 47.493578,4.49174312 Z" id="Path"></path>
                    <path d="M51.3908257,3.63302752 L51.3908257,5.28440367 C51.3908257,6.20917431 52.3816514,6.27522936 52.9761468,5.94495413 L53.4385321,6.93577982 C53.1082569,7.13394495 52.7119266,7.26605505 52.0513761,7.26605505 C50.7963303,7.26605505 50.0697248,6.3412844 50.0697248,5.15229358 L50.0697248,3.56697248 L48.946789,3.56697248 L48.946789,2.37798165 L50.0697248,2.37798165 L50.0697248,0.660550459 L51.3247706,0.264220183 L51.3247706,2.37798165 L53.4385321,2.37798165 L53.4385321,3.56697248 L51.3908257,3.63302752 L51.3908257,3.63302752 Z" id="Path"></path>
                    <path d="M58.6568807,7.26605505 L58.5908257,6.67155963 C58.2605505,7.06788991 57.533945,7.33211009 56.9394495,7.33211009 C55.8165138,7.33211009 55.2220183,6.60550459 55.2220183,5.74678899 C55.2220183,4.49174312 56.8073394,3.83119266 58.3926606,4.35963303 C58.3266055,3.76513761 58.0623853,3.50091743 57.4018349,3.50091743 C56.9394495,3.50091743 56.5431193,3.63302752 56.2788991,3.76513761 L55.8165138,2.84036697 C56.212844,2.57614679 56.7412844,2.31192661 57.6,2.31192661 C58.7889908,2.31192661 59.7798165,2.97247706 59.7798165,4.7559633 L59.7798165,7.2 L58.6568807,7.26605505 L58.6568807,7.26605505 Z M56.4770642,5.74678899 C56.4770642,6.14311927 56.8073394,6.3412844 57.2697248,6.3412844 C57.7321101,6.3412844 58.2605505,5.94495413 58.3926606,5.28440367 C57.4018349,4.88807339 56.4770642,5.15229358 56.4770642,5.74678899 Z" id="Shape"></path>
                    <path d="M63.6110092,3.63302752 L63.6110092,5.28440367 C63.6110092,6.20917431 64.6018349,6.27522936 65.1963303,5.94495413 L65.6587156,6.93577982 C65.3284404,7.13394495 64.9321101,7.26605505 64.2715596,7.26605505 C63.0165138,7.26605505 62.2899083,6.3412844 62.2899083,5.15229358 L62.2899083,3.56697248 L61.1669725,3.56697248 L61.1669725,2.37798165 L62.2899083,2.37798165 L62.2899083,0.660550459 L63.5449541,0.264220183 L63.5449541,2.37798165 L65.6587156,2.37798165 L65.6587156,3.56697248 L63.6110092,3.63302752 L63.6110092,3.63302752 Z" id="Path"></path>
                    <path d="M72,6.07706422 L72,7.26605505 L67.8385321,7.26605505 L67.8385321,6.07706422 L69.2917431,6.07706422 L69.2917431,3.69908257 L68.0366972,3.69908257 L68.0366972,2.51009174 L70.612844,2.51009174 L70.612844,6.14311927 L72,6.07706422 L72,6.07706422 Z M69.093578,0.79266055 C69.093578,0.330275229 69.4238532,0 69.8862385,0 C70.3486239,0 70.6788991,0.330275229 70.6788991,0.79266055 C70.6788991,1.25504587 70.3486239,1.5853211 69.8862385,1.5853211 C69.4238532,1.65137615 69.093578,1.25504587 69.093578,0.79266055 Z" id="Shape"></path>
                    <path d="M78.2752294,4.82201835 C78.2752294,6.20917431 77.2183486,7.33211009 75.8972477,7.33211009 C74.4440367,7.33211009 73.5192661,6.20917431 73.5192661,4.82201835 C73.5192661,3.43486239 74.4440367,2.31192661 75.8972477,2.31192661 C77.2183486,2.37798165 78.2752294,3.43486239 78.2752294,4.82201835 Z M76.9541284,4.82201835 C76.9541284,4.09541284 76.4917431,3.56697248 75.8311927,3.56697248 C75.1706422,3.56697248 74.7082569,4.16146789 74.7082569,4.82201835 C74.7082569,5.48256881 75.1706422,6.07706422 75.8311927,6.07706422 C76.4917431,6.14311927 76.9541284,5.54862385 76.9541284,4.82201835 Z" id="Shape"></path>
                    <path d="M84.0880734,4.49174312 L84.0880734,7.2 L82.8330275,7.2 L82.8330275,4.49174312 C82.8330275,3.69908257 82.3706422,3.50091743 81.9743119,3.50091743 C81.5779817,3.50091743 81.1155963,3.83119266 81.1155963,4.62385321 L81.1155963,7.2 L79.8605505,7.2 L79.8605505,2.37798165 L81.1155963,2.37798165 L81.1155963,2.90642202 C81.3137615,2.64220183 81.7100917,2.31192661 82.3045872,2.31192661 C83.2954128,2.37798165 84.0880734,3.03853211 84.0880734,4.49174312 Z" id="Path"></path>
                    <path d="M96.440367,5.35045872 L93.1376147,5.35045872 C93.2697248,5.81284404 93.666055,6.14311927 94.2605505,6.14311927 C94.7229358,6.14311927 95.053211,5.94495413 95.3174312,5.68073394 L96.1761468,6.4733945 C95.7798165,7.00183486 95.053211,7.33211009 94.3266055,7.33211009 C92.8073394,7.33211009 91.8825688,6.20917431 91.8825688,4.82201835 C91.8825688,3.43486239 92.7412844,2.31192661 94.2605505,2.31192661 C95.1192661,2.31192661 96.506422,2.84036697 96.506422,4.68990826 C96.506422,4.95412844 96.440367,5.15229358 96.440367,5.35045872 Z M93.1376147,4.35963303 L95.1853211,4.35963303 C95.1192661,3.96330275 94.7889908,3.56697248 94.1944954,3.56697248 C93.6,3.56697248 93.2697248,3.89724771 93.1376147,4.35963303 Z" id="Shape"></path>
                    <path d="M102.451376,4.49174312 L102.451376,7.2 L101.19633,7.2 L101.19633,4.49174312 C101.19633,3.69908257 100.733945,3.50091743 100.337615,3.50091743 C99.9412844,3.50091743 99.4788991,3.83119266 99.4788991,4.62385321 L99.4788991,7.2 L98.2238532,7.2 L98.2238532,2.37798165 L99.4788991,2.37798165 L99.4788991,2.90642202 C99.6770642,2.64220183 100.073394,2.31192661 100.66789,2.31192661 C101.592661,2.37798165 102.451376,3.03853211 102.451376,4.49174312 Z" id="Path"></path>
                    <path d="M108.726606,8.0587156 C108.726606,9.18165138 107.73578,9.90825688 106.348624,9.90825688 C104.829358,9.90825688 103.970642,9.18165138 103.970642,8.0587156 C103.970642,7.39816514 104.300917,6.93577982 104.697248,6.67155963 C104.565138,6.4733945 104.433028,5.81284404 104.829358,5.28440367 C104.499083,4.95412844 104.366972,4.55779817 104.366972,4.09541284 C104.366972,3.10458716 105.159633,2.31192661 106.348624,2.31192661 C106.744954,2.31192661 107.141284,2.4440367 107.47156,2.57614679 L108.13211,1.98165138 L108.858716,2.77431193 L108.198165,3.36880734 C108.330275,3.56697248 108.330275,3.83119266 108.330275,4.0293578 C108.330275,5.02018349 107.47156,5.74678899 106.348624,5.74678899 C106.150459,5.74678899 105.952294,5.74678899 105.820183,5.68073394 C105.754128,5.87889908 105.820183,6.14311927 106.546789,6.20917431 C107.801835,6.3412844 108.726606,6.86972477 108.726606,8.0587156 Z M107.405505,8.0587156 C107.405505,7.66238532 107.075229,7.46422018 106.414679,7.46422018 C106.084404,7.46422018 105.688073,7.46422018 105.555963,7.39816514 C105.291743,7.53027523 105.159633,7.72844037 105.159633,7.99266055 C105.159633,8.38899083 105.489908,8.71926606 106.282569,8.71926606 C107.009174,8.71926606 107.405505,8.38899083 107.405505,8.0587156 Z M105.555963,4.09541284 C105.555963,4.42568807 105.886239,4.68990826 106.282569,4.68990826 C106.678899,4.68990826 107.009174,4.42568807 107.009174,4.09541284 C107.009174,3.76513761 106.678899,3.50091743 106.282569,3.50091743 C105.886239,3.56697248 105.555963,3.83119266 105.555963,4.09541284 Z" id="Shape"></path>
                    <path d="M113.614679,7.26605505 L113.548624,6.67155963 C113.218349,7.06788991 112.491743,7.33211009 111.897248,7.33211009 C110.774312,7.33211009 110.179817,6.60550459 110.179817,5.74678899 C110.179817,4.49174312 111.765138,3.83119266 113.350459,4.35963303 C113.284404,3.76513761 113.020183,3.50091743 112.359633,3.50091743 C111.897248,3.50091743 111.500917,3.63302752 111.236697,3.76513761 L110.774312,2.84036697 C111.170642,2.57614679 111.699083,2.31192661 112.557798,2.31192661 C113.746789,2.31192661 114.737615,2.97247706 114.737615,4.7559633 L114.737615,7.2 L113.614679,7.26605505 L113.614679,7.26605505 Z M111.434862,5.74678899 C111.434862,6.14311927 111.765138,6.3412844 112.227523,6.3412844 C112.689908,6.3412844 113.218349,5.94495413 113.350459,5.28440367 C112.359633,4.88807339 111.434862,5.15229358 111.434862,5.74678899 Z" id="Shape"></path>
                    <path d="M120.880734,8.0587156 C120.880734,9.18165138 119.889908,9.90825688 118.502752,9.90825688 C116.983486,9.90825688 116.124771,9.18165138 116.124771,8.0587156 C116.124771,7.39816514 116.455046,6.93577982 116.851376,6.67155963 C116.719266,6.4733945 116.587156,5.81284404 116.983486,5.28440367 C116.653211,4.95412844 116.521101,4.55779817 116.521101,4.09541284 C116.521101,3.10458716 117.313761,2.31192661 118.502752,2.31192661 C118.899083,2.31192661 119.295413,2.4440367 119.625688,2.57614679 L120.286239,1.98165138 L121.012844,2.77431193 L120.352294,3.36880734 C120.484404,3.56697248 120.484404,3.83119266 120.484404,4.0293578 C120.484404,5.02018349 119.625688,5.74678899 118.502752,5.74678899 C118.304587,5.74678899 118.106422,5.74678899 117.974312,5.68073394 C117.908257,5.87889908 117.974312,6.14311927 118.700917,6.20917431 C120.022018,6.3412844 120.880734,6.86972477 120.880734,8.0587156 Z M119.625688,8.0587156 C119.625688,7.66238532 119.295413,7.46422018 118.634862,7.46422018 C118.304587,7.46422018 117.908257,7.46422018 117.776147,7.39816514 C117.511927,7.53027523 117.379817,7.72844037 117.379817,7.99266055 C117.379817,8.38899083 117.710092,8.71926606 118.502752,8.71926606 C119.229358,8.71926606 119.625688,8.38899083 119.625688,8.0587156 Z M117.776147,4.09541284 C117.776147,4.42568807 118.106422,4.68990826 118.502752,4.68990826 C118.899083,4.68990826 119.229358,4.42568807 119.229358,4.09541284 C119.229358,3.76513761 118.899083,3.50091743 118.502752,3.50091743 C118.106422,3.50091743 117.776147,3.83119266 117.776147,4.09541284 Z" id="Shape"></path>
                    <path d="M126.957798,5.35045872 L123.655046,5.35045872 C123.787156,5.81284404 124.183486,6.14311927 124.777982,6.14311927 C125.240367,6.14311927 125.570642,5.94495413 125.834862,5.68073394 L126.693578,6.4733945 C126.297248,7.00183486 125.570642,7.33211009 124.844037,7.33211009 C123.324771,7.33211009 122.4,6.20917431 122.4,4.82201835 C122.4,3.43486239 123.258716,2.31192661 124.777982,2.31192661 C125.636697,2.31192661 127.023853,2.84036697 127.023853,4.68990826 C127.023853,4.95412844 127.023853,5.15229358 126.957798,5.35045872 Z M123.655046,4.35963303 L125.702752,4.35963303 C125.636697,3.96330275 125.306422,3.56697248 124.711927,3.56697248 C124.117431,3.56697248 123.787156,3.89724771 123.655046,4.35963303 Z M124.844037,1.78348624 L124.051376,1.78348624 L124.711927,0.198165138 L125.834862,0.198165138 L124.844037,1.78348624 Z" id="Shape"></path>
                    <path d="M133.100917,5.35045872 L129.798165,5.35045872 C129.930275,5.81284404 130.326606,6.14311927 130.921101,6.14311927 C131.383486,6.14311927 131.713761,5.94495413 131.977982,5.68073394 L132.836697,6.4733945 C132.440367,7.00183486 131.713761,7.33211009 130.987156,7.33211009 C129.46789,7.33211009 128.543119,6.20917431 128.543119,4.82201835 C128.543119,3.43486239 129.401835,2.31192661 130.921101,2.31192661 C131.779817,2.31192661 133.166972,2.84036697 133.166972,4.68990826 C133.100917,4.95412844 133.100917,5.15229358 133.100917,5.35045872 Z M129.798165,4.35963303 L131.845872,4.35963303 C131.779817,3.96330275 131.449541,3.56697248 130.855046,3.56697248 C130.26055,3.56697248 129.930275,3.89724771 129.798165,4.35963303 Z" id="Shape"></path>
                </g>
            </g>
        </g>
    </g>
</svg>